# xmcd
#
# Track frame offsets:
#  150
#  14631
#  26714
#  42844
#  56135
#  74178
#  87245
#  103997
#  115831
#  129858
#  143775
#  161098
#  176261
#  190954
#  204374
#  219262
#  231479
#  244527
#
# Disc length: 3422 seconds
#
# Revision: 0
# Processed by: cddbd v1.5.1PL2 Copyright (c) Steve Scherf et al.
# Submitted via: AltoMP3_Maker 3.0
#
DISCID=070d5c12
DTITLE=Clarance Wijewardana - Awasan Hasun Pathin
DYEAR=1900
DGENRE=
TTITLE0=Avasan Hasun Pathin
TTITLE1=Menike Maga
TTITLE2=Thushara Bindu
TTITLE3=Ananthayata
TTITLE4=Pemin Liyu Liyun
TTITLE5=Nallale Kiyambu Lathawo
TTITLE6=Saranan Badena Pemwathie
TTITLE7=Sithe Moduwemin
TTITLE8=Rhunata Adipathi
TTITLE9=Duva Magedo
TTITLE10=Hiru Sandu makena
TTITLE11=Sagare Tharangaye
TTITLE12=Nala Hisa Pirala
TTITLE13=Kiri Kawadi Sina
TTITLE14=Sidu Sela Palanda
TTITLE15=Navathila Bindu sinaseela
TTITLE16=Geyuwa Eda Geethika
TTITLE17=Ran Giragin
EXTD=
EXTT0=
EXTT1=
EXTT2=
EXTT3=
EXTT4=
EXTT5=
EXTT6=
EXTT7=
EXTT8=
EXTT9=
EXTT10=
EXTT11=
EXTT12=
EXTT13=
EXTT14=
EXTT15=
EXTT16=
EXTT17=
PLAYORDER=
